<svg width="24" height="24" viewBox="0 0 24 24" fill="none" xmlns="http://www.w3.org/2000/svg">
<g clip-path="url(#clip0_508_52)">
<path fill-rule="evenodd" clip-rule="evenodd" d="M22 2H2V22H22V2ZM12.24 19.4237L12.2417 19.4229L12.2458 19.42L12.2583 19.4104L12.3075 19.375C12.3492 19.3442 12.41 19.2992 12.4867 19.24C12.64 19.1225 12.8575 18.9496 13.1171 18.7275C13.7985 18.1451 14.4357 17.5128 15.0233 16.8358C16.4017 15.2417 17.8333 12.9662 17.8333 10.365C17.8333 8.81083 17.2192 7.31917 16.1258 6.21917C15.5854 5.67475 14.9427 5.24258 14.2346 4.94753C13.5265 4.65249 12.7671 4.50039 12 4.5C11.2329 4.50034 10.4735 4.65237 9.76544 4.94734C9.05736 5.24231 8.4146 5.6744 7.87417 6.21875C6.77976 7.32126 6.16593 8.81195 6.16667 10.3654C6.16667 12.9662 7.59833 15.2417 8.97667 16.8358C9.56432 17.5128 10.2015 18.1451 10.8829 18.7275C11.1429 18.9496 11.36 19.1225 11.5133 19.24C11.5885 19.298 11.6645 19.3549 11.7413 19.4108L11.7546 19.42L11.7583 19.4229L11.76 19.4237C11.9037 19.525 12.0962 19.525 12.24 19.4237ZM12 12.4167C12.5525 12.4167 13.0824 12.1972 13.4731 11.8065C13.8638 11.4158 14.0833 10.8859 14.0833 10.3333C14.0833 9.7808 13.8638 9.2509 13.4731 8.86019C13.0824 8.46949 12.5525 8.25 12 8.25C11.4475 8.25 10.9176 8.46949 10.5269 8.86019C10.1362 9.2509 9.91667 9.7808 9.91667 10.3333C9.91667 10.8859 10.1362 11.4158 10.5269 11.8065C10.9176 12.1972 11.4475 12.4167 12 12.4167Z" fill="white"/>
</g>
<defs>
<clipPath id="clip0_508_52">
<rect x="2" y="2" width="20" height="20" rx="3" fill="white"/>
</clipPath>
</defs>
</svg>
