<svg width="20" height="20" viewBox="0 0 20 20" fill="none" xmlns="http://www.w3.org/2000/svg">
<path d="M6.892 2.03C6.60087 2.13459 6.31693 2.25819 6.042 2.4C5.94271 2.45181 5.84531 2.50718 5.75 2.566L5.732 2.578L5.726 2.582L5.724 2.583L5.723 2.584C5.61254 2.65746 5.53578 2.7718 5.50962 2.90186C5.48346 3.03191 5.51003 3.16704 5.5835 3.2775C5.65696 3.38796 5.7713 3.46472 5.90136 3.49088C6.03142 3.51704 6.16654 3.49046 6.277 3.417L6.284 3.412L6.325 3.387C6.363 3.364 6.424 3.329 6.505 3.287C6.667 3.202 6.912 3.087 7.233 2.97C8.12098 2.65361 9.05735 2.49456 10 2.5C11.183 2.5 12.125 2.736 12.767 2.97C13.087 3.087 13.333 3.202 13.495 3.287C13.5697 3.32614 13.6431 3.36783 13.715 3.412L13.723 3.416C13.7776 3.45469 13.8393 3.48204 13.9047 3.49643C13.97 3.51081 14.0376 3.51194 14.1033 3.49975C14.1691 3.48756 14.2318 3.46229 14.2876 3.42544C14.3434 3.3886 14.3913 3.34092 14.4284 3.28524C14.4655 3.22956 14.491 3.16701 14.5034 3.10128C14.5159 3.03556 14.5151 2.968 14.5009 2.90262C14.4868 2.83723 14.4597 2.77534 14.4213 2.72061C14.3828 2.66588 14.3337 2.61942 14.277 2.584L14.276 2.583L14.274 2.582L14.268 2.578L14.249 2.566C14.1537 2.50718 14.0563 2.45181 13.957 2.4C13.6824 2.25822 13.3988 2.13462 13.108 2.03C12.1107 1.67392 11.0589 1.49456 10 1.5C8.94106 1.49456 7.88929 1.67392 6.892 2.03ZM6.892 17.97C7.625 18.237 8.682 18.5 10 18.5C11.0589 18.5054 12.1107 18.3261 13.108 17.97C13.475 17.837 13.761 17.702 13.958 17.6C14.057 17.5482 14.154 17.4928 14.249 17.434L14.268 17.422L14.274 17.418L14.276 17.417C14.276 17.417 14.277 17.416 14 17L14.277 17.416C14.3831 17.3408 14.4557 17.2271 14.4794 17.0993C14.5031 16.9714 14.4761 16.8393 14.404 16.731C14.3319 16.6227 14.2204 16.5468 14.0933 16.5194C13.9662 16.4919 13.8333 16.5151 13.723 16.584L13.715 16.589C13.6431 16.6332 13.5697 16.6749 13.495 16.714C13.2595 16.8352 13.0163 16.9407 12.767 17.03C11.879 17.3464 10.9426 17.5054 10 17.5C9.05735 17.5054 8.12099 17.3464 7.233 17.03C6.98368 16.9403 6.74049 16.8344 6.505 16.713C6.43025 16.6739 6.35687 16.6322 6.285 16.588L6.277 16.583C6.2223 16.5466 6.16098 16.5214 6.09653 16.5087C6.03207 16.496 5.96576 16.4962 5.90136 16.5091C5.83696 16.5221 5.77575 16.5476 5.72121 16.5842C5.66667 16.6208 5.61988 16.6678 5.5835 16.7225C5.54712 16.7772 5.52188 16.8385 5.5092 16.903C5.49652 16.9674 5.49667 17.0337 5.50962 17.0981C5.52258 17.1625 5.54809 17.2238 5.5847 17.2783C5.62131 17.3328 5.6683 17.3796 5.723 17.416L5.724 17.417L5.726 17.418L5.732 17.422L5.75 17.434L5.813 17.472C6.15775 17.6676 6.51836 17.8339 6.891 17.969L6.892 17.97ZM2.5 7V13C2.5 13.5304 2.71071 14.0391 3.08579 14.4142C3.46086 14.7893 3.96957 15 4.5 15H10.5C11.0304 15 11.5391 14.7893 11.9142 14.4142C12.2893 14.0391 12.5 13.5304 12.5 13V7C12.5 6.46956 12.2893 5.96086 11.9142 5.58578C11.5391 5.21071 11.0304 5 10.5 5H4.5C3.96957 5 3.46086 5.21071 3.08579 5.58578C2.71071 5.96086 2.5 6.46956 2.5 7ZM13.5 11.55L16.277 13.807C16.387 13.8964 16.5201 13.9528 16.6609 13.9696C16.8016 13.9865 16.9443 13.9631 17.0723 13.9022C17.2003 13.8413 17.3084 13.7453 17.3841 13.6255C17.4598 13.5056 17.5 13.3668 17.5 13.225V6.775C17.5 6.63324 17.4598 6.49438 17.3841 6.37453C17.3084 6.25467 17.2003 6.15873 17.0723 6.09781C16.9443 6.0369 16.8016 6.01351 16.6609 6.03035C16.5201 6.0472 16.387 6.10359 16.277 6.193L13.5 8.45V11.55Z" fill="white"/>
</svg>
